<svg xmlns="http://www.w3.org/2000/svg" width="41" height="48"><path d="M32 41.3C27.5 45.6 22.4 48 20.5 48 18.6 48 13.5 45.6 9 41.3 4.9 37.2 0 30.2 0 19.6L0 9.3C0 8.8 0.3 8.4 0.7 8.3 7.5 6.4 13.8 3.8 20 0.1 20.3 0 20.7 0 21 0.1 27 3.7 33.6 6.5 40.3 8.3 40.7 8.4 41 8.8 41 9.3L41 19.6C41 30.2 36.1 37.2 32 41.3ZM39 10C32.6 8.2 26.3 5.5 20.5 2.2 14.6 5.6 8.5 8.2 2 10L2 19.6C2 29.5 6.6 36.1 10.4 39.8 14.8 44.1 19.5 46 20.5 46 21.5 46 26.2 44.1 30.6 39.8 34.4 36.1 39 29.5 39 19.6L39 10ZM29.7 37.9C28.7 38.9 27.7 39.8 26.6 40.7 26.4 40.8 26.2 40.9 26 40.9 25.7 40.9 25.4 40.7 25.2 40.5 24.8 40 24.9 39.4 25.3 39.1 26.4 38.3 27.3 37.4 28.2 36.5 29.3 35.3 30.3 34.1 31.1 32.9 31.5 32.4 32.1 32.3 32.5 32.6 33 32.9 33.1 33.5 32.8 34 31.9 35.3 30.9 36.7 29.7 37.9ZM24 42.4L23.9 42.4C23.8 42.5 23.6 42.6 23.4 42.6 23.1 42.6 22.8 42.4 22.6 42 22.3 41.6 22.5 40.9 22.9 40.7L23 40.6C23.5 40.4 24.1 40.5 24.4 41 24.7 41.5 24.5 42.1 24 42.4ZM13.9 10L13.9 10C13.7 10.1 13.6 10.1 13.5 10.1 13.1 10.1 12.7 9.9 12.5 9.5 12.3 9 12.5 8.4 13 8.2L13.1 8.2C13.6 7.9 14.2 8.2 14.4 8.7 14.6 9.2 14.4 9.8 13.9 10ZM11 11.2C9.3 11.9 7.7 12.5 6 13L6 16.2C6 16.7 5.6 17.2 5 17.2 4.5 17.2 4 16.7 4 16.2L4 12.3C4 11.8 4.3 11.4 4.7 11.3 6.6 10.7 8.4 10.1 10.2 9.3 10.7 9.1 11.3 9.4 11.5 9.9 11.7 10.4 11.5 11 11 11.2Z" fill="rgb(24, 117, 204)"/></svg>
