<svg id="Слой_1" data-name="Слой 1" xmlns="http://www.w3.org/2000/svg" width="220" height="53.5" viewBox="0 0 220 53.5">
  <defs>
    <style>
      .cls-1 {
        fill: #1875cc;
      }
    </style>
  </defs>
  <title>sadfa</title>
  <path class="cls-1" d="M12,6.25s29.25,4,97.5,4c62.25,0,97.5-4,97.5-4a7,7,0,0,1,7,7h0c0,1.32-4.5,5.78-4.5,14a22.78,22.78,0,0,0,4.5,14,7,7,0,0,1-7,7S177.25,45,109.5,45C34,45,12,48.25,12,48.25a7,7,0,0,1-7-7,25.52,25.52,0,0,0,4-14,26.56,26.56,0,0,0-4-14A7,7,0,0,1,12,6.25Z"/>
</svg>
