<svg id="Слой_1" data-name="Слой 1" xmlns="http://www.w3.org/2000/svg" width="209" height="48.17" viewBox="0 0 209 48.17">
  <defs>
    <style>
      .cls-1 {
        fill: #1875cc;
      }
    </style>
  </defs>
  <title>sadfa-0441-01</title>
  <path class="cls-1" d="M12,6.25s42.67-2.58,98-2.58c62.25,0,97,2.58,97,2.58a7,7,0,0,1,7,7h0v13.5c-.09,5,0,8.25,0,14.5a7,7,0,0,1-7,7s-33.17,3.58-97,3.58c-70.83,0-98-3.58-98-3.58a7,7,0,0,1-7-7c0-11.92.05-9.46,0-14.42C5,18.67,5,21,5,13.25A7,7,0,0,1,12,6.25Z" transform="translate(-5 -3.67)"/>
</svg>
